<?xml version="1.0" encoding="utf-8"?>
<!-- Generator: Adobe Illustrator 27.5.0, SVG Export Plug-In . SVG Version: 6.00 Build 0)  -->
<svg version="1.1" xmlns="http://www.w3.org/2000/svg" xmlns:xlink="http://www.w3.org/1999/xlink"
	x="0px" y="0px"
	viewBox="150 175 950 875" xml:space="preserve">

<g id="Object_42_">
	<g id="Object_15_">
		<rect x="616.493" y="209.816" style="fill:#A8A8A8;" width="63.567" height="83.3"/>
		<path style="fill:#8e93fc;"
				d="M854.505,585.111h-8.693c-0.172,0-0.319-0.077-0.486-0.098c-0.286,0.064-0.58,0.098-0.858,0.098
			c-1.871,0-3.559-1.287-3.991-3.183l-23.127-101.429c-9.092-39.913-44.039-67.79-84.975-67.79H580.347
			c-57.634,0-107.59,41.032-118.786,97.562l-13.795,71.52c-0.028,0.144-0.12,0.252-0.163,0.389
			c-0.085,0.283-0.191,0.541-0.332,0.794c-0.115,0.205-0.238,0.39-0.385,0.57c-0.19,0.236-0.395,0.438-0.632,0.627
			c-0.175,0.138-0.349,0.256-0.544,0.365c-0.252,0.142-0.509,0.25-0.792,0.336c-0.248,0.077-0.49,0.122-0.75,0.151
			c-0.147,0.016-0.275,0.085-0.426,0.085h-73.46c-30.164,0-54.707,24.543-54.707,54.707v42.995
			c0,30.168,24.543,54.711,54.707,54.711h37.602c1.986-32.997,29.386-59.253,62.871-59.253c33.485,0,60.876,26.256,62.863,59.253
			h158.557c1.986-32.997,29.386-59.253,62.871-59.253s60.885,26.256,62.871,59.253h36.587c30.164,0,54.707-24.542,54.707-54.711
			v-42.995C909.212,609.653,884.669,585.111,854.505,585.111z M637.844,593.551c0,2.263-1.831,4.094-4.094,4.094H493.284
			c-1.256,0-2.439-0.576-3.215-1.555c-0.776-0.984-1.056-2.271-0.768-3.491l22.455-94.104c6.597-27.649,31.06-46.958,59.481-46.958
			h62.512c2.263,0,4.094,1.831,4.094,4.094V593.551z M806.483,596.09c-0.776,0.98-1.959,1.555-3.215,1.555H684.155
			c-2.263,0-4.095-1.831-4.095-4.094V455.633c0-2.263,1.831-4.094,4.095-4.094h41.16c28.421,0,52.884,19.309,59.481,46.958
			l22.455,94.104C807.539,593.819,807.259,595.107,806.483,596.09z" />
		<path style="fill:#6AB1C3;" d="M725.315,459.727h-37.066v129.73h109.83l-21.248-89.058
			C771.113,476.453,749.929,459.727,725.315,459.727z"/>
		<path style="fill:#6AB1C3;" d="M519.722,500.399l-21.248,89.058h131.181v-129.73h-58.417
			C546.624,459.727,525.44,476.453,519.722,500.399z"/>
		<path style="fill:#4C9C3A;" d="M894.931,417.442c-1.453-17.372-1.993-66.336,32.466-102.112c0.046-0.048,0.097-0.09,0.143-0.137
			c-28.486-36.192-83.347-49.385-98.257-52.359C819.046,313.296,815.882,395.305,894.931,417.442z"/>
		<path style="fill:#7DC369;" d="M903.053,415.571l40.905-30.779l7.125-40.76c0.392-2.235,2.527-3.707,4.734-3.331
			c2.231,0.392,3.719,2.511,3.327,4.738l-5.622,32.155l29.313-22.056c0.515-0.82,1.32-1.386,2.233-1.681l51.478-38.735
			c1.791-1.352,4.366-1,5.734,0.808c1.359,1.807,1,4.374-0.808,5.734l-44.789,33.701l31.482,5.504
			c2.231,0.392,3.719,2.511,3.327,4.738c-0.344,1.991-2.071,3.391-4.022,3.391c-0.24,0-0.472-0.02-0.712-0.06l-39.041-6.825
			l-79.342,59.702c41.491,13.958,76.428,12.197,103.797-5.574c50.724-32.971,61.56-111.193,63.423-129.45
			c-62.97-7.055-109.468,3.514-138.688,31.026c-0.286,0.54-0.662,1.038-1.194,1.418c-0.256,0.184-0.549,0.256-0.828,0.373
			c-0.5,0.497-1.098,0.898-1.587,1.406C902.213,353.288,901.894,398.464,903.053,415.571z"/>
		<path style="fill:#353535;" d="M755.047,686.459c-30.26,0-54.875,24.619-54.875,54.875s24.615,54.871,54.875,54.871
			s54.875-24.615,54.875-54.871S785.308,686.459,755.047,686.459z M755.047,780.871c-21.808,0-39.545-17.737-39.545-39.537
			c0-21.804,17.737-39.541,39.545-39.541c21.8,0,39.537,17.737,39.537,39.541C794.584,763.134,776.847,780.871,755.047,780.871z"/>
		<path style="fill:#A8A8A8;" d="M470.757,709.982c-17.289,0-31.356,14.063-31.356,31.352c0,17.285,14.066,31.348,31.356,31.348
			c17.289,0,31.348-14.063,31.348-31.348C502.105,724.045,488.046,709.982,470.757,709.982z"/>
		<path style="fill:#A8A8A8;" d="M755.047,709.982c-17.289,0-31.356,14.063-31.356,31.352c0,17.285,14.067,31.348,31.356,31.348
			s31.348-14.063,31.348-31.348C786.395,724.045,772.337,709.982,755.047,709.982z"/>
		<path style="fill:#353535;" d="M470.757,686.459c-30.26,0-54.875,24.619-54.875,54.875s24.615,54.871,54.875,54.871
			c30.252,0,54.867-24.615,54.867-54.871S501.009,686.459,470.757,686.459z M470.757,780.871c-21.808,0-39.545-17.737-39.545-39.537
			c0-21.804,17.737-39.541,39.545-39.541c21.799,0,39.537,17.737,39.537,39.541C510.294,763.134,492.557,780.871,470.757,780.871z"
			/>
		<path style="fill:#222221;" d="M633.75,451.538h-62.512c-28.421,0-52.884,19.309-59.481,46.958L489.302,592.6
			c-0.288,1.22-0.008,2.507,0.768,3.491c0.776,0.98,1.959,1.555,3.215,1.555H633.75c2.263,0,4.094-1.831,4.094-4.094V455.633
			C637.844,453.37,636.013,451.538,633.75,451.538z M629.656,589.457H498.474l21.248-89.058
			c5.718-23.947,26.902-40.672,51.516-40.672h58.417V589.457z"/>
		<path style="fill:#222221;" d="M784.796,498.496c-6.597-27.649-31.06-46.958-59.481-46.958h-41.16
			c-2.263,0-4.095,1.831-4.095,4.094v137.919c0,2.263,1.831,4.094,4.095,4.094h119.114c1.255,0,2.439-0.576,3.215-1.555
			c0.776-0.984,1.056-2.271,0.768-3.491L784.796,498.496z M688.249,589.457v-129.73h37.066c24.615,0,45.798,16.726,51.516,40.672
			l21.248,89.058H688.249z"/>
		<path style="fill:#222221;" d="M897.52,426.589c0.202,0.129,0.38,0.27,0.598,0.362c0.056,0.024,0.088,0.083,0.146,0.105
			c22,8.233,42.384,12.343,61.048,12.343c21.44,0,40.608-5.434,57.322-16.294c60.769-39.493,67.23-135.604,67.478-139.674
			c0.128-2.163-1.439-4.05-3.591-4.31c-65.903-8.058-115.297,2.195-147.071,30.404c-35.098-43.938-103.739-55.028-106.735-55.486
			c-2.167-0.332-4.174,1.06-4.622,3.179C795.24,381.271,856.522,416.62,897.52,426.589z M934.886,319.607
			c0.279-0.117,0.572-0.189,0.828-0.373c0.532-0.38,0.908-0.877,1.194-1.418c29.221-27.512,75.719-38.081,138.688-31.026
			c-1.863,18.257-12.699,96.479-63.423,129.45c-27.368,17.772-62.306,19.532-103.797,5.574l79.342-59.702l39.041,6.825
			c0.24,0.04,0.472,0.06,0.712,0.06c1.951,0,3.679-1.4,4.022-3.391c0.392-2.227-1.096-4.346-3.327-4.738l-31.482-5.504
			l44.789-33.701c1.807-1.359,2.167-3.926,0.808-5.734c-1.368-1.807-3.943-2.159-5.734-0.808l-51.478,38.735
			c-0.913,0.294-1.718,0.861-2.233,1.681l-29.313,22.056l5.622-32.155c0.392-2.227-1.096-4.346-3.327-4.738
			c-2.207-0.376-4.342,1.096-4.734,3.331l-7.125,40.76l-40.905,30.779c-1.16-17.107-0.841-62.283,30.245-94.558
			C933.788,320.505,934.386,320.104,934.886,319.607z M829.283,262.835c14.91,2.973,69.771,16.167,98.257,52.359
			c-0.046,0.048-0.097,0.09-0.143,0.137c-34.459,35.775-33.919,84.739-32.466,102.112
			C815.882,395.305,819.046,313.296,829.283,262.835z"/>
		<path style="fill:#222221;" d="M570.431,1035.605c189.247,0,351.976-134.768,386.939-320.452c0.224-1.195-0.096-2.431-0.872-3.371
			c-0.776-0.936-1.935-1.479-3.151-1.479h-42.358c4.064-8.319,6.411-17.624,6.411-27.489v-42.995
			c0-34.683-28.213-62.896-62.896-62.896h-6.771l-22.401-98.242c-9.948-43.663-48.173-74.159-92.956-74.159H580.347
			c-61.528,0-114.86,43.807-126.823,104.18l-13.163,68.222h-70.077c-34.683,0-62.896,28.213-62.896,62.896v42.995
			c0,34.683,28.213,62.9,62.896,62.9h37.632c2.265,32.727,29.549,58.681,62.842,58.681c33.293,0,60.569-25.954,62.834-58.681
			h158.615c2.265,32.727,29.549,58.681,62.842,58.681s60.577-25.954,62.842-58.681h36.616c21.438,0,40.38-10.797,51.74-27.221
			h42.136c-36.138,179.307-194.293,308.925-377.95,308.925c-212.606,0-385.571-172.961-385.571-385.563
			s172.965-385.567,385.571-385.567c12.619,0,25.33,0.697,37.873,1.918v39.006c0,2.263,1.831,4.094,4.094,4.094h71.756
			c2.263,0,4.094-1.831,4.094-4.094v-19.608h19.752c2.263,0,4.094-1.831,4.094-4.095c0-2.263-1.831-4.094-4.094-4.094h-19.752
			v-34.519h19.752c2.263,0,4.094-1.831,4.094-4.094c0-2.263-1.831-4.094-4.094-4.094h-19.752v-20.984
			c0-2.263-1.831-4.094-4.094-4.094h-71.756c-2.263,0-4.094,1.831-4.094,4.094v44.273c-12.55-1.198-25.254-1.897-37.873-1.897
			c-217.116,0-393.76,176.64-393.76,393.756S353.314,1035.605,570.431,1035.605z M470.757,796.205
			c-30.26,0-54.875-24.615-54.875-54.871s24.615-54.875,54.875-54.875c30.252,0,54.867,24.619,54.867,54.875
			S501.009,796.205,470.757,796.205z M755.047,796.205c-30.26,0-54.875-24.615-54.875-54.871s24.615-54.875,54.875-54.875
			s54.875,24.619,54.875,54.875S785.308,796.205,755.047,796.205z M909.212,682.813c0,30.168-24.542,54.711-54.707,54.711h-36.587
			c-1.986-32.997-29.386-59.253-62.871-59.253s-60.885,26.256-62.871,59.253H533.62c-1.986-32.997-29.378-59.253-62.863-59.253
			c-33.485,0-60.885,26.256-62.871,59.253h-37.602c-30.164,0-54.707-24.542-54.707-54.711v-42.995
			c0-30.164,24.543-54.707,54.707-54.707h73.46c0.151,0,0.279-0.069,0.426-0.085c0.26-0.029,0.502-0.074,0.75-0.151
			c0.283-0.086,0.54-0.194,0.792-0.336c0.195-0.109,0.369-0.227,0.544-0.365c0.237-0.189,0.442-0.391,0.632-0.627
			c0.147-0.179,0.27-0.365,0.385-0.57c0.141-0.253,0.247-0.511,0.332-0.794c0.043-0.137,0.135-0.245,0.163-0.389l13.795-71.52
			c11.196-56.53,61.152-97.562,118.786-97.562h152.029c40.936,0,75.883,27.877,84.975,67.79l23.127,101.429
			c0.432,1.895,2.119,3.183,3.991,3.183c0.278,0,0.572-0.034,0.858-0.098c0.167,0.021,0.314,0.098,0.486,0.098h8.693
			c30.164,0,54.707,24.543,54.707,54.707V682.813z M616.493,209.816h63.567v83.3h-63.567V209.816z"/>
		<path style="fill:#222221;" d="M755.047,701.794c-21.808,0-39.545,17.737-39.545,39.541c0,21.8,17.737,39.537,39.545,39.537
			c21.8,0,39.537-17.737,39.537-39.537C794.584,719.531,776.847,701.794,755.047,701.794z M755.047,772.682
			c-17.289,0-31.356-14.063-31.356-31.348c0-17.289,14.067-31.352,31.356-31.352s31.348,14.063,31.348,31.352
			C786.395,758.62,772.337,772.682,755.047,772.682z"/>
		<path style="fill:#222221;" d="M470.757,701.794c-21.808,0-39.545,17.737-39.545,39.541c0,21.8,17.737,39.537,39.545,39.537
			c21.799,0,39.537-17.737,39.537-39.537C510.294,719.531,492.557,701.794,470.757,701.794z M470.757,772.682
			c-17.289,0-31.356-14.063-31.356-31.348c0-17.289,14.066-31.352,31.356-31.352c17.289,0,31.348,14.063,31.348,31.352
			C502.105,758.62,488.046,772.682,470.757,772.682z"/>
	</g>
</g>
</svg>